<svg xmlns="http://www.w3.org/2000/svg" width="24" height="24" fill="#000000" viewBox="0 0 24 24">
  <path d="M12 2C6.5 2 2 6.5 2 12c0 4.4 2.9 8.1 6.9 9.4.5.1.7-.2.7-.5v-1.8c-2.8.6-3.4-1.3-3.4-1.3-.4-1-.9-1.3-.9-1.3-.7-.5.1-.5.1-.5.8.1 1.2.8 1.2.8.7 1.2 1.8.9 2.2.7.1-.5.3-.9.6-1.1-2.2-.3-4.5-1.1-4.5-5 0-1.1.4-2 .9-2.7-.1-.3-.4-1.4.1-2.8 0 0 .8-.3 2.8 1.1.8-.2 1.7-.3 2.6-.3s1.8.1 2.6.3c2-.1 2.8-1.1 2.8-1.1.5 1.4.2 2.5.1 2.8.6.7.9 1.6.9 2.7 0 3.9-2.3 4.7-4.5 5 .3.3.5.7.5 1.4v2c0 .3.2.6.7.5C19.1 20.1 22 16.4 22 12c0-5.5-4.5-10-10-10z"/>
</svg>
